<svg xmlns="http://www.w3.org/2000/svg" width="240" height="240" viewBox="0 0 48 48"><path fill="#B0BEC5" d="M24.172,42.829c-0.755-0.756-1.171-1.76-1.171-2.827L23,4h2l0.001,36.003c0,1.103,0.899,1.997,1.999,1.999c1.103,0,2-0.899,2-2h2C31,42.206,29.206,44,27,44C25.932,44,24.928,43.586,24.172,42.829z"/><path fill="#8BC34A" d="M43,27c0-10.494-8.507-19-19-19S5,16.506,5,27c0,0,2.835-2.715,6.334-2.715C14.831,24.285,17,27,17,27s3.502-2.715,7-2.715S31,27,31,27s2.169-2.715,5.666-2.715C40.165,24.285,43,27,43,27z"/><path fill="#558B2F" d="M24,8v16.285c3.498,0,7,2.715,7,2.715s2.169-2.715,5.666-2.715C40.165,24.285,43,27,43,27C43,16.506,34.493,8,24,8z"/><path fill="#689F38" d="M24,8c0,0-7,4.523-7,19c0,0,3.502-2.715,7-2.715S31,27,31,27C31,13.43,24,8,24,8z"/><path fill="#2196F3" d="M41 8c0 1.104-.896 2-2 2s-2-.896-2-2 2-4 2-4S41 6.896 41 8zM9 12c0 1.104-.896 2-2 2s-2-.896-2-2 2-4 2-4S9 10.896 9 12z"/></svg>